<svg width="161" height="20" viewBox="0 0 161 20" fill="none" xmlns="http://www.w3.org/2000/svg">
<path d="M1.37012 15.457C1.30566 15.4453 1.25879 15.4131 1.22949 15.3604C1.2002 15.3076 1.18555 15.249 1.18555 15.1846C1.18555 15.1318 1.19727 15.085 1.2207 15.0439L2.30176 12.9785C2.30762 12.9551 2.31641 12.8643 2.32812 12.7061C2.3457 12.5479 2.36328 12.3516 2.38086 12.1172C2.39844 11.877 2.41602 11.6104 2.43359 11.3174C2.45703 11.0244 2.48047 10.7344 2.50391 10.4473C2.52734 10.1602 2.54785 9.8877 2.56543 9.62988C2.58887 9.36621 2.60938 9.14648 2.62695 8.9707C2.63281 8.90039 2.6416 8.79492 2.65332 8.6543C2.66504 8.50781 2.67676 8.34082 2.68848 8.15332C2.7002 7.96582 2.71484 7.76367 2.73242 7.54688C2.75 7.33008 2.76758 7.11328 2.78516 6.89648L2.9082 5.05957C2.75 5.09473 2.58594 5.13281 2.41602 5.17383C2.24609 5.20898 2.0791 5.24121 1.91504 5.27051C1.75684 5.2998 1.60449 5.32617 1.45801 5.34961C1.31738 5.36719 1.19434 5.37598 1.08887 5.37598C1.02441 5.37598 0.974609 5.34668 0.939453 5.28809C0.910156 5.22949 0.895508 5.16797 0.895508 5.10352C0.895508 5.02734 0.913086 4.97168 0.948242 4.93652L3.18066 2.85352C3.3623 2.68945 3.54102 2.55762 3.7168 2.45801C3.89844 2.35254 4.11523 2.27051 4.36719 2.21191C4.61914 2.15332 4.92676 2.11523 5.29004 2.09766C5.65918 2.07422 6.125 2.0625 6.6875 2.0625C7.64844 2.0625 8.50098 2.16211 9.24512 2.36133C9.98926 2.56055 10.6191 2.84473 11.1348 3.21387C11.5156 3.47754 11.8555 3.75293 12.1543 4.04004C12.4531 4.32715 12.7051 4.64648 12.9102 4.99805C13.1152 5.34375 13.2705 5.72754 13.376 6.14941C13.4814 6.56543 13.5342 7.03711 13.5342 7.56445C13.5342 8.56641 13.3848 9.45703 13.0859 10.2363C12.7871 11.0156 12.3799 11.6982 11.8643 12.2842C11.3486 12.8643 10.7451 13.3564 10.0537 13.7607C9.36816 14.165 8.63281 14.4932 7.84766 14.7451C7.06836 14.9971 6.25977 15.1787 5.42188 15.29C4.58984 15.4014 3.77246 15.457 2.96973 15.457H1.37012ZM6.47656 4.875L6.37109 5.93848C6.33594 6.30762 6.29785 6.70312 6.25684 7.125C6.22168 7.54102 6.18652 7.96582 6.15137 8.39941C6.11621 8.82715 6.08105 9.25195 6.0459 9.67383C6.01074 10.0898 5.97852 10.4795 5.94922 10.8428C5.91992 11.2061 5.89355 11.5312 5.87012 11.8184C5.84668 12.1055 5.82617 12.334 5.80859 12.5039L5.78223 12.7676C6.49121 12.7676 7.08887 12.6533 7.5752 12.4248C8.06738 12.1963 8.46582 11.8828 8.77051 11.4844C9.0752 11.0801 9.29492 10.6084 9.42969 10.0693C9.57031 9.53027 9.64062 8.9502 9.64062 8.3291C9.64062 7.88379 9.5791 7.45605 9.45605 7.0459C9.33301 6.62988 9.1543 6.23438 8.91992 5.85938C8.68555 5.48438 8.39844 5.20312 8.05859 5.01562C7.71875 4.82812 7.33496 4.73438 6.90723 4.73438C6.83691 4.73438 6.76074 4.75195 6.67871 4.78711C6.59668 4.81641 6.5293 4.8457 6.47656 4.875ZM65.5303 14.8857C65.4131 14.8564 65.334 14.8125 65.293 14.7539C65.252 14.6895 65.2314 14.6191 65.2314 14.543C65.2314 14.5254 65.2314 14.5137 65.2314 14.5078C65.2373 14.502 65.2402 14.4902 65.2402 14.4727C65.2871 13.8398 65.3369 13.1777 65.3896 12.4863C65.4482 11.7891 65.5098 11.083 65.5742 10.3682C65.6387 9.64746 65.7031 8.92969 65.7676 8.21484C65.832 7.5 65.8965 6.80566 65.9609 6.13184H65.9521C65.9287 6.13184 65.8613 6.15234 65.75 6.19336C65.6445 6.22852 65.5215 6.26953 65.3809 6.31641C65.2461 6.35742 65.1084 6.39551 64.9678 6.43066C64.8271 6.46582 64.7129 6.4834 64.625 6.4834C64.5488 6.4834 64.4932 6.4541 64.458 6.39551C64.4287 6.33691 64.4141 6.27246 64.4141 6.20215C64.4141 6.14941 64.4229 6.09961 64.4404 6.05273C64.5986 5.5957 64.7627 5.16797 64.9326 4.76953C65.1025 4.37109 65.2725 3.96094 65.4424 3.53906C65.8877 3.29883 66.3506 3.09082 66.8311 2.91504C67.3115 2.7334 67.7949 2.58398 68.2812 2.4668C68.7734 2.34375 69.2627 2.25293 69.749 2.19434C70.2354 2.12988 70.707 2.09766 71.1641 2.09766C71.8027 2.09766 72.4033 2.16504 72.9658 2.2998C73.5342 2.43457 74.0264 2.63965 74.4424 2.91504C74.8643 3.18457 75.1953 3.52734 75.4355 3.94336C75.6816 4.35352 75.8047 4.83691 75.8047 5.39355C75.8047 5.63379 75.752 5.86523 75.6465 6.08789C75.541 6.31055 75.4033 6.52441 75.2334 6.72949C75.0693 6.92871 74.8848 7.11621 74.6797 7.29199C74.4746 7.46191 74.2725 7.61719 74.0732 7.75781C74.3545 7.96289 74.6064 8.15039 74.8291 8.32031C75.0576 8.48438 75.251 8.65723 75.4092 8.83887C75.5674 9.02051 75.6875 9.22559 75.7695 9.4541C75.8516 9.67676 75.8926 9.94922 75.8926 10.2715C75.8926 10.7637 75.8047 11.2354 75.6289 11.6865C75.459 12.1318 75.2217 12.5479 74.917 12.9346C74.6182 13.3154 74.2607 13.6611 73.8447 13.9717C73.4346 14.2822 72.9863 14.5488 72.5 14.7715C72.0195 14.9883 71.5098 15.1553 70.9707 15.2725C70.4375 15.3955 69.8984 15.457 69.3535 15.457C69.1543 15.457 68.8877 15.4365 68.5537 15.3955C68.2197 15.3545 67.8682 15.3047 67.499 15.2461C67.1357 15.1934 66.7754 15.1318 66.418 15.0615C66.0664 14.9971 65.7705 14.9385 65.5303 14.8857ZM69.582 5.24414C69.4707 5.93555 69.377 6.63867 69.3008 7.35352C69.2246 8.0625 69.1572 8.75391 69.0986 9.42773C69.0459 10.0957 68.999 10.7314 68.958 11.335C68.917 11.9385 68.876 12.4775 68.835 12.9521C69.0693 12.9521 69.3213 12.9404 69.5908 12.917C69.8662 12.8877 70.1387 12.8408 70.4082 12.7764C70.6777 12.7119 70.9385 12.6299 71.1904 12.5303C71.4482 12.4248 71.6738 12.2959 71.8672 12.1436C72.0605 11.9912 72.2158 11.8125 72.333 11.6074C72.4502 11.3965 72.5088 11.1562 72.5088 10.8867C72.5088 10.7227 72.459 10.5791 72.3594 10.4561C72.2598 10.3271 72.1309 10.2188 71.9727 10.1309C71.8203 10.0371 71.6504 9.96094 71.4629 9.90234C71.2754 9.83789 71.0908 9.78809 70.9092 9.75293C70.7334 9.71191 70.5693 9.68262 70.417 9.66504C70.2705 9.6416 70.1592 9.62402 70.083 9.6123C70.001 9.60059 69.9482 9.57129 69.9248 9.52441C69.9014 9.47754 69.8896 9.41895 69.8896 9.34863C69.8896 9.27246 69.9365 9.1582 70.0303 9.00586C70.124 8.85352 70.2529 8.64551 70.417 8.38184L70.7861 7.79297C70.9443 7.73438 71.1143 7.66113 71.2959 7.57324C71.4834 7.48535 71.6562 7.38574 71.8145 7.27441C71.9727 7.15723 72.1045 7.02832 72.21 6.8877C72.3154 6.74121 72.3682 6.58301 72.3682 6.41309C72.3682 5.93262 72.2627 5.56641 72.0518 5.31445C71.8467 5.05664 71.5479 4.92773 71.1553 4.92773C70.71 4.92773 70.1855 5.0332 69.582 5.24414ZM114.644 9.32227C114.644 8.64844 114.72 8.00391 114.872 7.38867C115.03 6.76758 115.253 6.19043 115.54 5.65723C115.827 5.11816 116.173 4.63184 116.577 4.19824C116.987 3.75879 117.444 3.38379 117.948 3.07324C118.452 2.75684 118.997 2.51367 119.583 2.34375C120.175 2.17383 120.796 2.08887 121.446 2.08887C121.962 2.08887 122.413 2.12402 122.8 2.19434C123.192 2.25879 123.532 2.34375 123.819 2.44922C124.112 2.54883 124.355 2.66016 124.549 2.7832C124.748 2.90625 124.912 3.02344 125.041 3.13477C125.035 3.13477 125.032 3.15527 125.032 3.19629C125.032 3.28418 125.038 3.44531 125.05 3.67969C125.067 3.91406 125.085 4.1748 125.103 4.46191C125.126 4.74902 125.144 5.04199 125.155 5.34082C125.173 5.63379 125.182 5.88867 125.182 6.10547C125.182 6.14062 125.17 6.18164 125.146 6.22852C125.123 6.26953 125.064 6.29004 124.971 6.29004C124.918 6.29004 124.854 6.28125 124.777 6.26367C124.654 6.22852 124.499 6.14941 124.312 6.02637C124.124 5.89746 123.904 5.76562 123.652 5.63086C123.406 5.49023 123.128 5.36719 122.817 5.26172C122.513 5.15039 122.179 5.09473 121.815 5.09473C121.335 5.09473 120.898 5.19727 120.506 5.40234C120.113 5.60156 119.779 5.88281 119.504 6.24609C119.229 6.60352 119.015 7.03125 118.862 7.5293C118.71 8.02148 118.634 8.55762 118.634 9.1377C118.634 9.64746 118.681 10.125 118.774 10.5703C118.868 11.0156 119.009 11.4023 119.196 11.7305C119.39 12.0527 119.627 12.3076 119.908 12.4951C120.189 12.6826 120.521 12.7764 120.901 12.7764C121.271 12.7764 121.689 12.6973 122.158 12.5391L122.36 11.2998H120.682C120.811 10.5908 120.922 10.0342 121.016 9.62988C121.109 9.22559 121.197 8.9209 121.279 8.71582C121.361 8.51074 121.446 8.38184 121.534 8.3291C121.622 8.27637 121.725 8.25 121.842 8.25H126.465C126.6 8.25 126.696 8.25879 126.755 8.27637C126.819 8.29395 126.852 8.35547 126.852 8.46094C126.852 8.51367 126.846 8.57812 126.834 8.6543C126.822 8.72461 126.808 8.8125 126.79 8.91797L126.351 10.3945C126.298 10.582 126.254 10.7285 126.219 10.834C126.184 10.9336 126.14 11.0098 126.087 11.0625C126.034 11.1094 125.961 11.1387 125.867 11.1504C125.779 11.1562 125.65 11.1592 125.48 11.1592C125.387 11.1592 125.331 11.1973 125.313 11.2734C125.296 11.3496 125.281 11.4287 125.27 11.5107C125.234 11.7686 125.199 12.0264 125.164 12.2842C125.129 12.5361 125.094 12.7734 125.059 12.9961C125.029 13.2129 124.997 13.4062 124.962 13.5762C124.927 13.7402 124.892 13.8604 124.856 13.9365C124.458 14.1885 124.095 14.4111 123.767 14.6045C123.444 14.792 123.122 14.9473 122.8 15.0703C122.478 15.1992 122.138 15.2959 121.78 15.3604C121.423 15.4248 121.013 15.457 120.55 15.457C119.724 15.457 118.95 15.3076 118.229 15.0088C117.509 14.71 116.882 14.291 116.349 13.752C115.821 13.207 115.405 12.5596 115.101 11.8096C114.796 11.0596 114.644 10.2305 114.644 9.32227Z" fill="#2C7EEA"/>
<path d="M19.7305 5.19141C20.2871 5.19141 20.791 5.29688 21.2422 5.50781C21.6992 5.71289 22.0889 5.98242 22.4111 6.31641C22.7393 6.64453 22.9912 7.01367 23.167 7.42383C23.3428 7.83398 23.4307 8.24414 23.4307 8.6543C23.4307 9.01758 23.3193 9.38379 23.0967 9.75293C22.874 10.1162 22.5605 10.4443 22.1562 10.7373C21.7578 11.0303 21.2773 11.2676 20.7148 11.4492C20.1523 11.6309 19.5342 11.7217 18.8604 11.7217C18.5088 11.7217 18.1396 11.6865 17.7529 11.6162C17.7764 11.8682 17.8496 12.085 17.9727 12.2666C18.0957 12.4482 18.251 12.5977 18.4385 12.7148C18.626 12.832 18.8369 12.9199 19.0713 12.9785C19.3115 13.0312 19.5576 13.0576 19.8096 13.0576C20.0908 13.0576 20.3604 13.0342 20.6182 12.9873C20.8818 12.9346 21.1338 12.8672 21.374 12.7852C21.6143 12.7031 21.8457 12.6123 22.0684 12.5127C22.291 12.4131 22.502 12.3135 22.7012 12.2139C22.7539 12.2021 22.7979 12.1934 22.833 12.1875C22.874 12.1758 22.9121 12.1699 22.9473 12.1699C22.9473 12.1699 22.9443 12.2168 22.9385 12.3105C22.9385 12.4043 22.9385 12.5361 22.9385 12.7061C22.9385 12.876 22.9355 13.0811 22.9297 13.3213C22.9297 13.5615 22.9268 13.8281 22.9209 14.1211C22.9385 14.1504 22.9502 14.1797 22.9561 14.209C22.9619 14.2383 22.9648 14.2617 22.9648 14.2793C22.9648 14.3496 22.9004 14.4258 22.7715 14.5078C22.6426 14.5898 22.4727 14.6748 22.2617 14.7627C22.0566 14.8506 21.8193 14.9355 21.5498 15.0176C21.2861 15.0996 21.0166 15.1729 20.7412 15.2373C20.4658 15.3076 20.1992 15.3604 19.9414 15.3955C19.6836 15.4365 19.458 15.457 19.2646 15.457C18.6318 15.457 18.0166 15.3457 17.4189 15.123C16.8271 14.9062 16.2998 14.5928 15.8369 14.1826C15.3799 13.7725 15.0137 13.2744 14.7383 12.6885C14.4629 12.1025 14.3252 11.4434 14.3252 10.7109C14.3252 9.94336 14.457 9.22559 14.7207 8.55762C14.9844 7.88379 15.3535 7.29785 15.8281 6.7998C16.3086 6.30176 16.8799 5.90918 17.542 5.62207C18.2041 5.33496 18.9336 5.19141 19.7305 5.19141ZM19.625 7.5293C19.3848 7.5293 19.1621 7.58203 18.957 7.6875C18.7578 7.78711 18.5732 7.93359 18.4033 8.12695C18.2393 8.31445 18.0957 8.54297 17.9727 8.8125C17.8496 9.07617 17.75 9.36914 17.6738 9.69141C18.2773 9.58594 18.7783 9.47461 19.1768 9.35742C19.5752 9.24023 19.8945 9.12305 20.1348 9.00586C20.375 8.88281 20.5449 8.7627 20.6445 8.64551C20.7441 8.52246 20.7939 8.40527 20.7939 8.29395C20.7939 8.18848 20.7529 8.08887 20.6709 7.99512C20.5947 7.90137 20.498 7.81934 20.3809 7.74902C20.2637 7.67871 20.1348 7.62598 19.9941 7.59082C19.8594 7.5498 19.7363 7.5293 19.625 7.5293ZM24.5732 12.5742C24.5732 12.5684 24.5703 12.5654 24.5645 12.5654C24.5645 12.5596 24.5645 12.5537 24.5645 12.5479C24.5645 12.4717 24.6055 12.4336 24.6875 12.4336C24.7402 12.4336 24.7871 12.4541 24.8281 12.4951C25.0625 12.7178 25.3291 12.8994 25.6279 13.04C25.9326 13.1807 26.2607 13.251 26.6123 13.251C26.7061 13.251 26.8145 13.2422 26.9375 13.2246C27.0605 13.2012 27.1777 13.166 27.2891 13.1191C27.4004 13.0723 27.4912 13.0107 27.5615 12.9346C27.6377 12.8525 27.6758 12.7529 27.6758 12.6357C27.6758 12.5068 27.6436 12.3896 27.5791 12.2842C27.5146 12.1729 27.4297 12.082 27.3242 12.0117C27.2656 11.9707 27.1631 11.9004 27.0166 11.8008C26.8701 11.6953 26.7119 11.584 26.542 11.4668C26.3779 11.3496 26.2197 11.2383 26.0674 11.1328C25.9209 11.0273 25.8184 10.9512 25.7598 10.9043C25.4961 10.7051 25.2852 10.5029 25.127 10.2979C24.9746 10.0928 24.8574 9.88184 24.7754 9.66504C24.6934 9.44238 24.6406 9.21094 24.6172 8.9707C24.5938 8.73047 24.582 8.47559 24.582 8.20605C24.582 7.7959 24.6904 7.40918 24.9072 7.0459C25.124 6.68262 25.4082 6.36328 25.7598 6.08789C26.1172 5.8125 26.5215 5.5957 26.9727 5.4375C27.4238 5.27344 27.8838 5.19141 28.3525 5.19141C28.7393 5.19141 29.1201 5.25 29.4951 5.36719C29.8701 5.48438 30.2188 5.68359 30.541 5.96484C30.5703 6.33398 30.5908 6.69727 30.6025 7.05469C30.6143 7.41211 30.6318 7.78711 30.6553 8.17969C30.6553 8.25586 30.6377 8.30859 30.6025 8.33789C30.5674 8.36133 30.5264 8.37305 30.4795 8.37305C30.4385 8.37305 30.4033 8.3584 30.374 8.3291C30.2393 8.2002 30.1016 8.07422 29.9609 7.95117C29.8203 7.82227 29.6709 7.71094 29.5127 7.61719C29.3604 7.51758 29.1963 7.43848 29.0205 7.37988C28.8447 7.31543 28.6572 7.2832 28.458 7.2832C28.335 7.2832 28.2119 7.29492 28.0889 7.31836C27.9658 7.33594 27.8545 7.37402 27.7549 7.43262C27.6553 7.48535 27.5732 7.55859 27.5088 7.65234C27.4502 7.74609 27.4209 7.86621 27.4209 8.0127C27.4209 8.18262 27.4414 8.3291 27.4824 8.45215C27.5234 8.5752 27.6201 8.69531 27.7725 8.8125L29.4072 9.91992C29.7061 10.125 29.9463 10.3271 30.1279 10.5264C30.3154 10.7197 30.4619 10.9131 30.5674 11.1064C30.6729 11.2998 30.7432 11.4932 30.7783 11.6865C30.8193 11.874 30.8398 12.0615 30.8398 12.249C30.8398 12.7764 30.7168 13.2422 30.4707 13.6465C30.2305 14.0449 29.917 14.3789 29.5303 14.6484C29.1436 14.9121 28.7041 15.1113 28.2119 15.2461C27.7256 15.3867 27.2363 15.457 26.7441 15.457C26.3691 15.457 26.0059 15.416 25.6543 15.334C25.3086 15.2578 24.9863 15.1377 24.6875 14.9736L24.5732 12.5742ZM32.334 11.2734C32.4102 10.4707 32.4863 9.67676 32.5625 8.8916C32.6387 8.10645 32.7061 7.30078 32.7646 6.47461C32.7764 6.28125 32.7939 6.14941 32.8174 6.0791C32.8467 6.00293 32.9141 5.95312 33.0195 5.92969C33.5176 5.83008 34.0391 5.72754 34.584 5.62207C35.1289 5.51074 35.6562 5.37012 36.166 5.2002C36.1836 5.19434 36.21 5.19141 36.2451 5.19141C36.3096 5.19141 36.3418 5.21484 36.3418 5.26172L35.5508 13.8223C35.5332 14.0156 35.5127 14.1504 35.4893 14.2266C35.4658 14.2969 35.4014 14.3438 35.2959 14.3672C34.7979 14.5195 34.2939 14.6895 33.7842 14.877C33.2744 15.0645 32.7354 15.2549 32.167 15.4482C32.1494 15.4541 32.123 15.457 32.0879 15.457C32.0234 15.457 31.9912 15.4277 31.9912 15.3691C31.9912 15.3633 31.9971 15.2842 32.0088 15.1318C32.0205 14.9795 32.0352 14.7832 32.0527 14.543C32.0762 14.3027 32.0996 14.0332 32.123 13.7344C32.1465 13.4355 32.1699 13.1367 32.1934 12.8379C32.2227 12.5391 32.249 12.252 32.2725 11.9766C32.2959 11.7012 32.3164 11.4668 32.334 11.2734ZM32.9932 4.25977C33.0107 4.00781 33.0225 3.81445 33.0283 3.67969C33.04 3.54492 33.0488 3.44531 33.0547 3.38086C33.0605 3.31055 33.0635 3.2666 33.0635 3.24902C33.0635 3.23145 33.0635 3.21973 33.0635 3.21387C33.0693 3.20215 33.0723 3.18457 33.0723 3.16113C33.0781 3.13184 33.084 3.07617 33.0898 2.99414C33.0957 2.90625 33.1045 2.78027 33.1162 2.61621C33.1279 2.45215 33.1455 2.22656 33.1689 1.93945C33.1807 1.74609 33.1982 1.61426 33.2217 1.54395C33.251 1.46777 33.3184 1.41797 33.4238 1.39453C33.9219 1.29492 34.4434 1.19238 34.9883 1.08691C35.5332 0.975586 36.0605 0.834961 36.5703 0.665039C36.5879 0.65918 36.6143 0.65625 36.6494 0.65625C36.667 0.691406 36.6904 0.714844 36.7197 0.726562L36.7461 0.744141L36.5527 3.15234C36.5352 3.3457 36.5117 3.48047 36.4824 3.55664C36.459 3.63281 36.3975 3.67969 36.2979 3.69727C35.7998 3.79102 35.2959 3.89355 34.7861 4.00488C34.2764 4.11621 33.7373 4.22754 33.1689 4.33887C33.1514 4.34473 33.125 4.34766 33.0898 4.34766C33.0254 4.34766 32.9932 4.31836 32.9932 4.25977ZM43.8916 8.7334C43.833 8.59863 43.751 8.46094 43.6455 8.32031C43.5459 8.17969 43.4287 8.05078 43.2939 7.93359C43.1592 7.81641 43.0127 7.72266 42.8545 7.65234C42.6963 7.57617 42.5293 7.53809 42.3535 7.53809C42.1133 7.53809 41.8877 7.6377 41.6768 7.83691C41.4658 8.03613 41.2812 8.30273 41.123 8.63672C40.9648 8.96484 40.8389 9.34277 40.7451 9.77051C40.6572 10.1924 40.6133 10.6318 40.6133 11.0889C40.6133 11.3701 40.6367 11.6367 40.6836 11.8887C40.7363 12.1348 40.8154 12.3516 40.9209 12.5391C41.0264 12.7266 41.1611 12.876 41.3252 12.9873C41.4951 13.0986 41.6973 13.1543 41.9316 13.1543C42.2832 13.1543 42.6055 13.0459 42.8984 12.8291C43.1914 12.6064 43.4404 12.3193 43.6455 11.9678C43.6514 11.8447 43.6602 11.6982 43.6719 11.5283C43.6836 11.3584 43.6982 11.1533 43.7158 10.9131C43.7334 10.667 43.7539 10.3799 43.7773 10.0518C43.8066 9.71777 43.8418 9.32227 43.8828 8.86523L43.8916 8.7334ZM46.8008 14.042C46.7422 14.6221 46.6104 15.1641 46.4053 15.668C46.2002 16.1719 45.9395 16.6318 45.623 17.0479C45.3125 17.4697 44.9551 17.8447 44.5508 18.1729C44.1523 18.5068 43.7275 18.7881 43.2764 19.0166C42.8311 19.2451 42.3711 19.418 41.8965 19.5352C41.4219 19.6582 40.9531 19.7197 40.4902 19.7197C40.2441 19.7197 39.9922 19.7109 39.7344 19.6934C39.4766 19.6758 39.2246 19.6406 38.9785 19.5879C38.7324 19.541 38.498 19.4707 38.2754 19.377C38.0527 19.2891 37.8535 19.1748 37.6777 19.0342V19.0254C37.6777 18.9961 37.6982 18.8936 37.7393 18.7178C37.7861 18.542 37.8389 18.334 37.8975 18.0938C37.9619 17.8594 38.0264 17.6162 38.0908 17.3643C38.1611 17.1123 38.2197 16.8955 38.2666 16.7139C38.29 16.6318 38.3135 16.5762 38.3369 16.5469C38.3604 16.5176 38.3867 16.5029 38.416 16.5029C38.4512 16.5029 38.4717 16.5059 38.4775 16.5117C38.6475 16.623 38.8057 16.7139 38.9521 16.7842C39.1045 16.8604 39.2627 16.9189 39.4268 16.96C39.5967 17.0068 39.7812 17.0391 39.9805 17.0566C40.1797 17.0742 40.4111 17.083 40.6748 17.083C41.085 17.083 41.4482 17.0039 41.7646 16.8457C42.0811 16.6875 42.3535 16.4824 42.582 16.2305C42.8105 15.9785 42.9922 15.7002 43.127 15.3955C43.2676 15.0967 43.3643 14.8008 43.417 14.5078C42.9951 14.7891 42.5674 15.0176 42.1338 15.1934C41.7002 15.3691 41.2637 15.457 40.8242 15.457C40.2207 15.457 39.6992 15.334 39.2598 15.0879C38.8203 14.8477 38.457 14.5225 38.1699 14.1123C37.8828 13.7021 37.6689 13.2334 37.5283 12.7061C37.3936 12.1729 37.3262 11.6162 37.3262 11.0361C37.3262 10.5791 37.3672 10.1191 37.4492 9.65625C37.5371 9.1875 37.6631 8.73633 37.8271 8.30273C37.9971 7.86914 38.2051 7.46484 38.4512 7.08984C38.6973 6.70898 38.9814 6.37793 39.3037 6.09668C39.626 5.81543 39.9834 5.5957 40.376 5.4375C40.7686 5.27344 41.1963 5.19141 41.6592 5.19141C42.1631 5.19141 42.6289 5.30273 43.0566 5.52539C43.4902 5.74805 43.8828 6.02344 44.2344 6.35156C44.2461 6.24609 44.2549 6.16406 44.2607 6.10547C44.2666 6.04102 44.2812 5.99121 44.3047 5.95605C44.3281 5.9209 44.3662 5.89453 44.4189 5.87695C44.4775 5.85938 44.5596 5.83887 44.665 5.81543C44.7295 5.80371 44.8467 5.78027 45.0166 5.74512C45.1865 5.7041 45.3887 5.65723 45.623 5.60449C45.8574 5.55176 46.1152 5.49609 46.3965 5.4375C46.6777 5.37891 46.9619 5.31738 47.249 5.25293C47.3193 5.23535 47.3838 5.22656 47.4424 5.22656C47.624 5.22656 47.7148 5.34375 47.7148 5.57812C47.7148 5.60742 47.7148 5.63672 47.7148 5.66602C47.7148 5.68945 47.7119 5.71582 47.7061 5.74512L46.8008 14.042ZM56.1699 15.3164C56.1055 15.334 56.0205 15.3604 55.915 15.3955C55.8096 15.4365 55.707 15.457 55.6074 15.457C55.5254 15.457 55.4521 15.4365 55.3877 15.3955C55.3291 15.3545 55.2998 15.2842 55.2998 15.1846V15.1318C55.335 14.8154 55.3643 14.5488 55.3877 14.332C55.4111 14.1094 55.4316 13.9102 55.4492 13.7344C55.4727 13.5527 55.4902 13.374 55.502 13.1982C55.5195 13.0166 55.54 12.8086 55.5635 12.5742C55.5869 12.334 55.6133 12.0527 55.6426 11.7305C55.6777 11.4023 55.7188 10.9951 55.7656 10.5088C55.7949 10.21 55.8213 9.90527 55.8447 9.59473C55.8682 9.28418 55.8799 8.99707 55.8799 8.7334C55.8799 8.55762 55.8652 8.39648 55.8359 8.25C55.8125 8.09766 55.7656 7.96875 55.6953 7.86328C55.6309 7.75195 55.54 7.66699 55.4229 7.6084C55.3057 7.5498 55.1562 7.52051 54.9746 7.52051C54.8398 7.52051 54.6523 7.5498 54.4121 7.6084C54.1777 7.66699 53.9434 7.76367 53.709 7.89844C53.4746 8.0332 53.2666 8.21191 53.085 8.43457C52.9033 8.65137 52.8008 8.9209 52.7773 9.24316C52.7422 9.67676 52.71 10.0488 52.6807 10.3594C52.6514 10.6641 52.625 10.9248 52.6016 11.1416C52.5781 11.3525 52.5576 11.5254 52.54 11.6602C52.5283 11.7949 52.5195 11.9092 52.5137 12.0029C52.5078 12.0264 52.499 12.0908 52.4873 12.1963C52.4756 12.3018 52.4609 12.4277 52.4434 12.5742C52.4316 12.7207 52.417 12.876 52.3994 13.04C52.3877 13.2041 52.373 13.3594 52.3555 13.5059C52.3438 13.6523 52.332 13.7783 52.3203 13.8838C52.3145 13.9893 52.3115 14.0537 52.3115 14.0771C52.3115 14.124 52.3115 14.165 52.3115 14.2002C52.3174 14.2295 52.3203 14.2588 52.3203 14.2881C52.3203 14.335 52.2969 14.376 52.25 14.4111C52.209 14.4404 52.1123 14.4756 51.96 14.5166L49.6309 15.3164C49.5664 15.3398 49.4814 15.3691 49.376 15.4043C49.2705 15.4395 49.168 15.457 49.0684 15.457C48.9863 15.457 48.9131 15.4365 48.8486 15.3955C48.79 15.3545 48.7607 15.2842 48.7607 15.1846L49.5605 6.20215C49.5781 6.00879 49.5986 5.87695 49.6221 5.80664C49.6514 5.73047 49.7188 5.68066 49.8242 5.65723C50.3574 5.55176 50.9053 5.44629 51.4678 5.34082C52.0303 5.22949 52.5781 5.08887 53.1113 4.91895C53.1582 4.91895 53.1846 4.92773 53.1904 4.94531C53.2021 4.95703 53.208 4.97754 53.208 5.00684C53.208 5.01855 53.2051 5.03613 53.1992 5.05957C53.1992 5.08301 53.1904 5.13574 53.1729 5.21777C53.1611 5.2998 53.1406 5.42578 53.1113 5.5957C53.0879 5.75977 53.0527 5.99121 53.0059 6.29004C53.4102 6.05566 53.7881 5.86816 54.1396 5.72754C54.4971 5.58105 54.8311 5.46973 55.1416 5.39355C55.458 5.31152 55.7539 5.25879 56.0293 5.23535C56.3047 5.20605 56.5625 5.19141 56.8027 5.19141C57.6289 5.19141 58.2295 5.44336 58.6045 5.94727C58.9795 6.44531 59.167 7.19531 59.167 8.19727C59.167 8.33789 59.1641 8.48438 59.1582 8.63672C59.1523 8.7832 59.1406 8.93555 59.123 9.09375L58.7188 12.873C58.6895 13.1191 58.6719 13.3477 58.666 13.5586C58.6602 13.7637 58.6572 14.0039 58.6572 14.2793C58.6572 14.3262 58.6572 14.3672 58.6572 14.4023C58.6631 14.4316 58.666 14.458 58.666 14.4814C58.666 14.5342 58.6426 14.5752 58.5957 14.6045C58.5547 14.6338 58.458 14.6719 58.3057 14.7188L56.1699 15.3164ZM86.2373 13.9102C86.2197 14.1035 86.1963 14.2383 86.167 14.3145C86.1377 14.3848 86.0732 14.4316 85.9736 14.4551C85.4756 14.5957 84.9541 14.7393 84.4092 14.8857C83.8701 15.0264 83.3457 15.2139 82.8359 15.4482C82.8184 15.4541 82.792 15.457 82.7568 15.457C82.71 15.457 82.6807 15.4453 82.6689 15.4219C82.6631 15.3984 82.6602 15.3721 82.6602 15.3428C82.6602 15.3311 82.6602 15.3105 82.6602 15.2812C82.666 15.252 82.6748 15.1963 82.6865 15.1143C82.6982 15.0381 82.7129 14.9297 82.7305 14.7891C82.7539 14.6484 82.7832 14.4609 82.8184 14.2266C82.1621 14.6543 81.5791 14.9648 81.0693 15.1582C80.5654 15.3574 80.1172 15.457 79.7246 15.457C78.7461 15.457 78.0312 15.2227 77.5801 14.7539C77.1348 14.2793 76.9121 13.5732 76.9121 12.6357C76.9121 12.4658 76.915 12.293 76.9209 12.1172C76.9268 11.9355 76.9443 11.751 76.9736 11.5635C77.0381 10.8721 77.0938 10.2803 77.1406 9.78809C77.1875 9.29004 77.2256 8.86816 77.2549 8.52246C77.2842 8.17676 77.3076 7.89551 77.3252 7.67871C77.3486 7.45605 77.3662 7.27148 77.3779 7.125C77.3955 6.97852 77.4072 6.8584 77.4131 6.76465C77.4248 6.66504 77.4365 6.56836 77.4482 6.47461C77.4717 6.28711 77.4922 6.15527 77.5098 6.0791C77.5332 6.00293 77.6006 5.95312 77.7119 5.92969C77.9873 5.87695 78.248 5.83008 78.4941 5.78906C78.7461 5.74219 78.9922 5.69531 79.2324 5.64844C79.4785 5.5957 79.7275 5.54004 79.9795 5.48145C80.2314 5.42285 80.498 5.35254 80.7793 5.27051C80.791 5.27051 80.8027 5.27051 80.8145 5.27051C80.8262 5.26465 80.8379 5.26172 80.8496 5.26172C80.9199 5.26172 80.9551 5.28516 80.9551 5.33203V5.34961C80.9316 5.54883 80.9111 5.73633 80.8936 5.91211C80.876 6.08789 80.8584 6.26953 80.8408 6.45703C80.8232 6.63867 80.8027 6.83496 80.7793 7.0459C80.7617 7.25684 80.7383 7.50293 80.709 7.78418C80.6797 8.05957 80.6445 8.37891 80.6035 8.74219C80.5625 9.10547 80.5127 9.52734 80.4541 10.0078C80.4189 10.3594 80.3838 10.7109 80.3486 11.0625C80.3135 11.4082 80.2959 11.7305 80.2959 12.0293C80.2959 12.1934 80.3076 12.3457 80.3311 12.4863C80.3545 12.6211 80.3955 12.7383 80.4541 12.8379C80.5186 12.9316 80.6006 13.0049 80.7002 13.0576C80.7998 13.1104 80.9287 13.1367 81.0869 13.1367C81.21 13.1367 81.377 13.1104 81.5879 13.0576C81.7988 12.999 82.0098 12.9023 82.2207 12.7676C82.4316 12.627 82.6162 12.4453 82.7744 12.2227C82.9385 11.9941 83.0322 11.707 83.0557 11.3613C83.0967 10.7812 83.1318 10.2979 83.1611 9.91113C83.1963 9.51855 83.2256 9.19043 83.249 8.92676C83.2725 8.65723 83.293 8.43164 83.3105 8.25C83.3281 8.06836 83.3428 7.89551 83.3545 7.73145C83.3721 7.56152 83.3867 7.38281 83.3984 7.19531C83.4102 7.00195 83.4219 6.76172 83.4336 6.47461C83.4512 6.28125 83.4717 6.14941 83.4951 6.0791C83.5244 6.00293 83.5918 5.95312 83.6973 5.92969C84.2305 5.82422 84.7754 5.71875 85.332 5.61328C85.8887 5.50195 86.4336 5.36133 86.9668 5.19141C87.0137 5.19141 87.04 5.2002 87.0459 5.21777C87.0576 5.22949 87.0635 5.25 87.0635 5.2793L86.2373 13.9102ZM88.4258 11.2734C88.502 10.4707 88.5781 9.67676 88.6543 8.8916C88.7305 8.10645 88.7979 7.30078 88.8564 6.47461C88.8682 6.28125 88.8857 6.14941 88.9092 6.0791C88.9385 6.00293 89.0059 5.95312 89.1113 5.92969C89.6094 5.83008 90.1309 5.72754 90.6758 5.62207C91.2207 5.51074 91.748 5.37012 92.2578 5.2002C92.2754 5.19434 92.3018 5.19141 92.3369 5.19141C92.4014 5.19141 92.4336 5.21484 92.4336 5.26172L91.6426 13.8223C91.625 14.0156 91.6045 14.1504 91.5811 14.2266C91.5576 14.2969 91.4932 14.3438 91.3877 14.3672C90.8896 14.5195 90.3857 14.6895 89.876 14.877C89.3662 15.0645 88.8271 15.2549 88.2588 15.4482C88.2412 15.4541 88.2148 15.457 88.1797 15.457C88.1152 15.457 88.083 15.4277 88.083 15.3691C88.083 15.3633 88.0889 15.2842 88.1006 15.1318C88.1123 14.9795 88.127 14.7832 88.1445 14.543C88.168 14.3027 88.1914 14.0332 88.2148 13.7344C88.2383 13.4355 88.2617 13.1367 88.2852 12.8379C88.3145 12.5391 88.3408 12.252 88.3643 11.9766C88.3877 11.7012 88.4082 11.4668 88.4258 11.2734ZM89.085 4.25977C89.1025 4.00781 89.1143 3.81445 89.1201 3.67969C89.1318 3.54492 89.1406 3.44531 89.1465 3.38086C89.1523 3.31055 89.1553 3.2666 89.1553 3.24902C89.1553 3.23145 89.1553 3.21973 89.1553 3.21387C89.1611 3.20215 89.1641 3.18457 89.1641 3.16113C89.1699 3.13184 89.1758 3.07617 89.1816 2.99414C89.1875 2.90625 89.1963 2.78027 89.208 2.61621C89.2197 2.45215 89.2373 2.22656 89.2607 1.93945C89.2725 1.74609 89.29 1.61426 89.3135 1.54395C89.3428 1.46777 89.4102 1.41797 89.5156 1.39453C90.0137 1.29492 90.5352 1.19238 91.0801 1.08691C91.625 0.975586 92.1523 0.834961 92.6621 0.665039C92.6797 0.65918 92.7061 0.65625 92.7412 0.65625C92.7588 0.691406 92.7822 0.714844 92.8115 0.726562L92.8379 0.744141L92.6445 3.15234C92.627 3.3457 92.6035 3.48047 92.5742 3.55664C92.5508 3.63281 92.4893 3.67969 92.3896 3.69727C91.8916 3.79102 91.3877 3.89355 90.8779 4.00488C90.3682 4.11621 89.8291 4.22754 89.2607 4.33887C89.2432 4.34473 89.2168 4.34766 89.1816 4.34766C89.1172 4.34766 89.085 4.31836 89.085 4.25977ZM94.1826 7.56445C94.2529 6.76172 94.3086 5.96777 94.3496 5.18262C94.3965 4.39746 94.4463 3.5918 94.499 2.76562C94.5107 2.57227 94.5283 2.44043 94.5518 2.37012C94.5811 2.29395 94.6484 2.24414 94.7539 2.2207C95.2988 2.12109 95.8438 2.02148 96.3887 1.92188C96.9395 1.81641 97.4902 1.67871 98.041 1.50879C98.0586 1.50293 98.085 1.5 98.1201 1.5C98.1846 1.5 98.2168 1.5293 98.2168 1.58789L97.0742 14.1387V14.2881C97.0742 14.3408 97.0537 14.3848 97.0127 14.4199C96.9717 14.4492 96.875 14.4844 96.7227 14.5254L94.4199 15.3691C94.3555 15.3984 94.2705 15.4277 94.165 15.457C94.0596 15.4922 93.957 15.5098 93.8574 15.5098C93.7754 15.5098 93.7021 15.4893 93.6377 15.4482C93.5791 15.4072 93.5498 15.3369 93.5498 15.2373V15.1846C93.5967 14.5928 93.6406 14.0156 93.6816 13.4531C93.7285 12.8848 93.7754 12.2988 93.8223 11.6953C93.875 11.0918 93.9307 10.4531 93.9893 9.7793C94.0479 9.10547 94.1123 8.36719 94.1826 7.56445ZM105.696 9.99902C105.714 9.81152 105.731 9.61523 105.749 9.41016C105.772 9.20508 105.799 8.99121 105.828 8.76855C105.693 8.41699 105.503 8.13281 105.257 7.91602C105.011 7.69336 104.703 7.58203 104.334 7.58203C103.971 7.58203 103.663 7.6875 103.411 7.89844C103.159 8.10352 102.957 8.3584 102.805 8.66309C102.652 8.96777 102.541 9.29004 102.471 9.62988C102.406 9.96387 102.374 10.2598 102.374 10.5176C102.374 10.834 102.392 11.1475 102.427 11.458C102.468 11.7686 102.529 12.0498 102.611 12.3018C102.699 12.5537 102.813 12.7588 102.954 12.917C103.095 13.0693 103.271 13.1455 103.481 13.1455C103.997 13.1279 104.416 13.0107 104.738 12.7939C105.061 12.5771 105.318 12.3135 105.512 12.0029L105.696 9.99902ZM108.764 14.1123C108.764 14.124 108.761 14.1387 108.755 14.1562C108.755 14.168 108.755 14.1797 108.755 14.1914C108.755 14.2207 108.755 14.2441 108.755 14.2617C108.761 14.2793 108.764 14.2969 108.764 14.3145C108.764 14.3672 108.743 14.4111 108.702 14.4463C108.667 14.4756 108.57 14.5107 108.412 14.5518L106.057 15.3164C105.992 15.3398 105.907 15.3691 105.802 15.4043C105.696 15.4395 105.594 15.457 105.494 15.457C105.412 15.457 105.339 15.4365 105.274 15.3955C105.216 15.3545 105.187 15.2783 105.187 15.167C105.187 15.0615 105.187 14.9766 105.187 14.9121C105.192 14.8477 105.195 14.7891 105.195 14.7363C105.201 14.6777 105.207 14.6162 105.213 14.5518C105.225 14.4873 105.236 14.4023 105.248 14.2969C104.809 14.6484 104.354 14.9297 103.886 15.1406C103.423 15.3516 102.934 15.457 102.418 15.457C101.855 15.457 101.354 15.3223 100.915 15.0527C100.481 14.7891 100.115 14.4346 99.8164 13.9893C99.5176 13.5381 99.2891 13.0254 99.1309 12.4512C98.9785 11.8711 98.9023 11.2676 98.9023 10.6406C98.9023 9.82617 99.0342 9.08496 99.2979 8.41699C99.5674 7.74316 99.9307 7.16895 100.388 6.69434C100.845 6.21387 101.378 5.84473 101.987 5.58691C102.597 5.32324 103.244 5.19141 103.93 5.19141C104.299 5.19141 104.65 5.28809 104.984 5.48145C105.324 5.6748 105.644 5.92383 105.942 6.22852C105.96 5.94141 105.98 5.63086 106.004 5.29688C106.027 4.95703 106.051 4.61426 106.074 4.26855C106.098 3.91699 106.121 3.57129 106.145 3.23145C106.168 2.8916 106.188 2.58105 106.206 2.2998C106.206 2.24707 106.224 2.20605 106.259 2.17676C106.3 2.1416 106.399 2.10352 106.558 2.0625L109.027 1.47363C109.092 1.46191 109.177 1.43555 109.282 1.39453C109.388 1.35352 109.49 1.33301 109.59 1.33301C109.666 1.33301 109.736 1.35059 109.801 1.38574C109.871 1.4209 109.906 1.48828 109.906 1.58789C109.906 1.59961 109.903 1.62598 109.897 1.66699C109.897 1.70215 109.897 1.72559 109.897 1.7373L108.764 14.1123ZM134.656 7.8457C134.533 7.83398 134.396 7.82227 134.243 7.81055C134.091 7.79297 133.93 7.78418 133.76 7.78418C133.502 7.78418 133.238 7.80762 132.969 7.85449C132.705 7.89551 132.459 7.98047 132.23 8.10938C132.002 8.23828 131.806 8.41699 131.642 8.64551C131.478 8.86816 131.372 9.1582 131.325 9.51562C131.284 9.94922 131.249 10.3066 131.22 10.5879C131.196 10.8633 131.179 11.0918 131.167 11.2734C131.155 11.4492 131.144 11.5928 131.132 11.7041C131.126 11.8096 131.12 11.9092 131.114 12.0029C131.114 12.0264 131.108 12.0908 131.097 12.1963C131.091 12.3018 131.079 12.4248 131.062 12.5654C131.044 12.7061 131.026 12.8584 131.009 13.0225C130.997 13.1865 130.982 13.3389 130.965 13.4795C130.947 13.6201 130.933 13.7432 130.921 13.8486C130.915 13.9541 130.912 14.0186 130.912 14.042C130.912 14.0889 130.912 14.1299 130.912 14.165C130.918 14.1943 130.921 14.2236 130.921 14.2529C130.921 14.2998 130.897 14.3408 130.851 14.376C130.81 14.4053 130.713 14.4404 130.561 14.4814L128.231 15.3164C128.167 15.3398 128.082 15.3691 127.977 15.4043C127.871 15.4395 127.769 15.457 127.669 15.457C127.587 15.457 127.514 15.4365 127.449 15.3955C127.391 15.3545 127.361 15.2842 127.361 15.1846L128.117 6.47461C128.135 6.28125 128.155 6.14941 128.179 6.0791C128.208 6.00293 128.275 5.95312 128.381 5.92969C128.914 5.82422 129.465 5.71875 130.033 5.61328C130.602 5.50195 131.152 5.36133 131.686 5.19141C131.732 5.19141 131.759 5.2002 131.765 5.21777C131.776 5.22949 131.782 5.25 131.782 5.2793C131.782 5.29102 131.779 5.30859 131.773 5.33203C131.773 5.35547 131.765 5.4082 131.747 5.49023C131.735 5.57227 131.715 5.69824 131.686 5.86816C131.662 6.03223 131.627 6.26367 131.58 6.5625C131.85 6.35156 132.146 6.1582 132.468 5.98242C132.796 5.80664 133.124 5.65723 133.452 5.53418C133.78 5.40527 134.097 5.30566 134.401 5.23535C134.706 5.15918 134.973 5.12109 135.201 5.12109L134.656 7.8457ZM140.018 15.457C139.191 15.457 138.465 15.3223 137.838 15.0527C137.217 14.7832 136.695 14.4258 136.273 13.9805C135.852 13.5293 135.535 13.0137 135.324 12.4336C135.113 11.8477 135.008 11.2412 135.008 10.6143C135.008 9.9873 135.11 9.39258 135.315 8.83008C135.521 8.26172 135.808 7.75488 136.177 7.30957C136.546 6.8584 136.988 6.4834 137.504 6.18457C138.02 5.87988 138.588 5.6748 139.209 5.56934C139.303 5.56348 139.35 5.54297 139.35 5.50781C139.35 5.44336 139.341 5.38477 139.323 5.33203C139.312 5.27344 139.306 5.22363 139.306 5.18262C139.306 5.11816 139.317 5.07422 139.341 5.05078C139.364 5.02734 139.391 5.01562 139.42 5.01562C140.539 5.01562 141.491 5.14453 142.276 5.40234C143.062 5.6543 143.7 6 144.192 6.43945C144.685 6.87891 145.042 7.39746 145.265 7.99512C145.487 8.59277 145.599 9.23438 145.599 9.91992C145.599 10.793 145.452 11.5723 145.159 12.2578C144.866 12.9434 144.465 13.5234 143.955 13.998C143.451 14.4727 142.859 14.833 142.18 15.0791C141.506 15.3311 140.785 15.457 140.018 15.457ZM138.392 10.5176C138.392 10.834 138.424 11.1475 138.488 11.458C138.559 11.7686 138.67 12.0498 138.822 12.3018C138.98 12.5537 139.186 12.7588 139.438 12.917C139.689 13.0693 140.003 13.1455 140.378 13.1455C140.647 13.1338 140.882 13.0752 141.081 12.9697C141.286 12.8584 141.462 12.7178 141.608 12.5479C141.755 12.3721 141.875 12.1758 141.969 11.959C142.068 11.7422 142.145 11.5195 142.197 11.291C142.256 11.0566 142.297 10.8281 142.32 10.6055C142.344 10.3828 142.355 10.1807 142.355 9.99902C142.355 9.69434 142.309 9.39551 142.215 9.10254C142.127 8.80957 141.995 8.55176 141.819 8.3291C141.644 8.10645 141.424 7.92773 141.16 7.79297C140.902 7.65234 140.604 7.58203 140.264 7.58203C139.912 7.58203 139.616 7.6875 139.376 7.89844C139.136 8.10352 138.942 8.3584 138.796 8.66309C138.655 8.96777 138.553 9.29004 138.488 9.62988C138.424 9.96387 138.392 10.2598 138.392 10.5176ZM151.936 6.05273C151.953 5.98828 152.003 5.94727 152.085 5.92969C152.56 5.82422 153.046 5.71582 153.544 5.60449C154.042 5.49316 154.52 5.35547 154.977 5.19141C155.059 5.19141 155.1 5.2207 155.1 5.2793L155.996 11.2734L157.675 5.2793C157.698 5.2207 157.742 5.19141 157.807 5.19141C157.824 5.19141 157.836 5.19434 157.842 5.2002C157.848 5.2002 157.859 5.2002 157.877 5.2002C158.316 5.37012 158.768 5.51074 159.23 5.62207C159.693 5.72754 160.153 5.83008 160.61 5.92969C160.722 5.95312 160.777 6.01758 160.777 6.12305C160.777 6.19922 160.742 6.31641 160.672 6.47461L157.842 14.3145C157.795 14.4141 157.754 14.499 157.719 14.5693C157.684 14.6338 157.648 14.6865 157.613 14.7275C157.578 14.7627 157.54 14.792 157.499 14.8154C157.458 14.833 157.408 14.8477 157.35 14.8594C156.904 14.9531 156.453 15.0557 155.996 15.167C155.539 15.2783 155.064 15.4189 154.572 15.5889C154.561 15.5889 154.552 15.5889 154.546 15.5889C154.54 15.5947 154.534 15.5977 154.528 15.5977H154.467C154.438 15.5977 154.414 15.5859 154.396 15.5625C154.379 15.5449 154.367 15.5273 154.361 15.5098C154.297 15.2578 154.224 14.9443 154.142 14.5693C154.06 14.1943 153.972 13.7783 153.878 13.3213C153.784 12.8643 153.685 12.375 153.579 11.8535C153.474 11.332 153.365 10.7959 153.254 10.2451L152.138 14.1738C152.108 14.2793 152.076 14.3672 152.041 14.4375C152.012 14.502 151.977 14.5547 151.936 14.5957C151.895 14.6309 151.851 14.6572 151.804 14.6748C151.757 14.6924 151.704 14.707 151.646 14.7188C151.2 14.8066 150.749 14.9062 150.292 15.0176C149.835 15.1348 149.36 15.2783 148.868 15.4482C148.856 15.4482 148.848 15.4482 148.842 15.4482C148.836 15.4541 148.83 15.457 148.824 15.457H148.763C148.733 15.457 148.707 15.4453 148.684 15.4219C148.666 15.4043 148.657 15.3867 148.657 15.3691C148.575 15.1113 148.481 14.7861 148.376 14.3936C148.271 13.9951 148.156 13.5527 148.033 13.0664C147.916 12.5742 147.793 12.0498 147.664 11.4932C147.535 10.9365 147.403 10.3711 147.269 9.79688C147.134 9.22266 146.999 8.6543 146.864 8.0918C146.735 7.52344 146.609 6.98438 146.486 6.47461C146.445 6.38086 146.422 6.30469 146.416 6.24609C146.41 6.18164 146.407 6.12891 146.407 6.08789C146.407 6.00586 146.454 5.95312 146.548 5.92969C147.005 5.83008 147.479 5.72754 147.972 5.62207C148.464 5.51074 148.93 5.37012 149.369 5.2002C149.387 5.19434 149.413 5.19141 149.448 5.19141C149.524 5.19141 149.565 5.2207 149.571 5.2793L150.556 11.3613L151.936 6.05273Z" fill="#2C364F"/>
</svg>
